<?xml version="1.0" encoding="iso-8859-1"?>
<!-- Uploaded to: SVG Repo, www.svgrepo.com, Generator: SVG Repo Mixer Tools -->
<svg version="1.1" id="Layer_1" xmlns="http://www.w3.org/2000/svg" xmlns:xlink="http://www.w3.org/1999/xlink" 
	 viewBox="0 0 392.598 392.598" xml:space="preserve">
<g>
	<path style="fill:#FFFFFF;" d="M266.279,162.65c-20.687-7.758-34.586-27.798-34.586-49.907V100.59H160.84v12.154
		c0,22.109-13.899,42.214-34.65,49.907c-10.02,3.814-17.325,12.412-19.653,22.691h179.329
		C283.604,175.192,276.364,166.465,266.279,162.65z"/>
	<polyline style="fill:#FFFFFF;" points="105.632,298.473 286.772,298.473 286.772,207.192 105.632,207.192 	"/>
</g>
<rect x="127.483" y="228.978" style="fill:#FFC10D;" width="137.438" height="47.709"/>
<path style="fill:#194F82;" d="M273.907,142.222c-12.218-4.59-20.493-16.485-20.493-29.543V100.59h11.313
	c6.012,0,10.925-4.848,10.925-10.925V38.141C275.653,17.131,258.521,0,237.511,0h-82.554c-21.01,0-38.141,17.131-38.141,38.141
	v51.523c0,6.012,4.848,10.925,10.925,10.925h11.313v12.154c0,13.059-8.21,24.889-20.493,29.543
	c-20.687,7.758-34.651,27.798-34.651,49.907v158.578c0,23.014,18.747,41.826,41.826,41.826h141.123
	c23.014,0,41.826-18.747,41.826-41.826V192.194C308.558,170.085,294.659,149.98,273.907,142.222z M120.566,259.038h-14.933v-12.347
	h28.832c6.012,0,10.925-4.848,10.925-10.925c0-6.012-4.848-10.925-10.925-10.925h-28.832v-17.713h181.075v91.345H105.632V280.76
	h14.933c6.012,0,10.925-4.848,10.925-10.925C131.426,263.887,126.578,259.038,120.566,259.038z M138.602,78.804V38.141
	c0-9.051,7.37-16.356,16.356-16.356h82.554c9.051,0,16.356,7.37,16.356,16.356v40.663C253.867,78.804,138.602,78.804,138.602,78.804
	z M126.125,162.65c20.687-7.758,34.651-27.798,34.651-49.907V100.59h70.853v12.154c0,22.109,13.899,42.214,34.586,49.907
	c10.02,3.814,17.325,12.412,19.652,22.691H106.473C108.8,175.192,116.04,166.465,126.125,162.65z M266.731,370.747H125.673
	c-11.055,0-20.04-8.986-20.04-20.04v-30.448h181.075v30.448C286.772,361.762,277.721,370.747,266.731,370.747z"/>
<path style="fill:#FFC10D;" d="M253.802,38.141c0-9.051-7.37-16.356-16.356-16.356h-82.489c-9.051,0-16.356,7.37-16.356,16.356
	v40.663h115.2L253.802,38.141L253.802,38.141z"/>
<path style="fill:#56ACE0;" d="M105.632,350.707c0,11.055,8.986,20.04,20.04,20.04h141.123c11.055,0,20.04-8.986,20.04-20.04
	v-30.448H105.632V350.707z"/>
<g>
	<path style="fill:#194F82;" d="M196.202,31.418c-6.012,0-10.925,4.848-10.925,10.925v15.838c0,6.012,4.848,10.925,10.925,10.925
		c6.012,0,10.925-4.848,10.925-10.925V42.408C207.127,36.396,202.214,31.418,196.202,31.418z"/>
	<path style="fill:#194F82;" d="M158.901,31.418c-6.012,0-10.925,4.848-10.925,10.925v15.838c0,6.012,4.848,10.925,10.925,10.925
		s10.925-4.848,10.925-10.925V42.408C169.762,36.396,164.913,31.418,158.901,31.418z"/>
	<path style="fill:#194F82;" d="M233.503,31.418c-6.012,0-10.925,4.848-10.925,10.925v15.838c0,6.012,4.848,10.925,10.925,10.925
		c6.012,0,10.925-4.848,10.925-10.925V42.408C244.493,36.396,239.58,31.418,233.503,31.418z"/>
</g>
</svg>